<svg width="93.9" height="29.524" viewBox="0 0 93.9 29.524" xmlns="http://www.w3.org/2000/svg" class="animated-svg"><style>
        .animated-svg path {
          stroke-dasharray: 2400;
          stroke-dashoffset: 2400;
          fill: transparent;
          animation: drawSignature 6s linear infinite both;
          animation-play-state: running;
          stroke-width: 2px;
          stroke: #000000;
        }
        @keyframes drawSignature {
          0% { stroke-dashoffset: 2400; }
          10% { fill: transparent; }
          25%, 85% { stroke-dashoffset: 0; fill: #000000; }
          95%, to { stroke-dashoffset: 2400; fill: transparent; }
        }
      </style><g id="svgGroup" stroke-linecap="round" fill-rule="evenodd" font-size="9pt" stroke="#000000" stroke-width="0.25mm" fill="#000000" style="stroke:#000000;stroke-width:0.25mm;fill:#000000"><path d="M 36.75 28.814 Q 34.4 28.814 33.65 27.739 Q 32.9 26.664 32.9 25.464 Q 32.9 23.414 33.95 21.639 Q 35 19.864 36.65 18.464 Q 38.3 17.064 40.075 16.289 Q 41.85 15.514 43.25 15.514 Q 44.25 15.514 44.85 15.789 Q 45.45 16.064 45.45 16.914 Q 45.45 17.714 44.5 18.614 Q 43.55 19.514 42.1 20.339 Q 40.65 21.164 39.075 21.839 Q 37.5 22.514 36.2 22.914 Q 34.9 23.314 34.3 23.314 L 34.3 23.039 L 34.3 22.764 A 1.119 1.119 0 0 0 34.423 22.77 A 5.521 5.521 0 0 0 35.875 22.464 Q 37 22.114 38.4 21.539 Q 39.8 20.964 41.125 20.214 Q 42.45 19.464 43.325 18.614 Q 44.2 17.764 44.2 16.964 Q 44.2 16.564 43.975 16.264 Q 43.75 15.964 43.2 15.964 Q 42.4 15.964 41.275 16.739 Q 40.15 17.514 39 18.764 Q 37.85 20.014 36.85 21.414 Q 35.85 22.814 35.225 24.089 Q 34.6 25.364 34.6 26.214 Q 34.6 27.214 35.2 27.714 Q 35.8 28.214 36.95 28.214 Q 38.95 28.214 40.725 27.239 Q 42.5 26.264 43.95 24.939 Q 45.4 23.614 46.4 22.439 A 32.207 32.207 0 0 1 47.653 21.018 A 0.757 0.757 0 0 1 47.65 21.014 A 40.788 40.788 0 0 1 51.134 17.359 A 13.711 13.711 0 0 1 51.75 16.839 Q 53.3 15.614 55 15.614 Q 56 15.614 56.625 16.314 Q 57.25 17.014 57.25 17.964 Q 57.25 19.214 56.8 20.439 Q 56.35 21.664 55.75 22.839 Q 55.15 24.014 54.7 25.064 Q 54.25 26.114 54.25 27.014 A 3.189 3.189 0 0 0 54.375 27.789 Q 54.5 28.264 55.45 28.264 Q 56.95 28.264 58.725 27.089 Q 60.5 25.914 62.2 24.214 A 34.666 34.666 0 0 0 64.044 22.244 A 26.44 26.44 0 0 1 64.675 21.439 Q 65.9 19.914 67.2 18.414 Q 68.5 16.914 69.5 15.664 Q 69.95 15.864 70.875 15.864 Q 71.8 15.864 72.45 15.764 Q 71.2 17.264 69.65 18.989 Q 68.1 20.714 66.7 22.414 Q 65.3 24.114 64.375 25.464 Q 63.45 26.814 63.45 27.564 Q 63.45 28.064 63.725 28.214 Q 64 28.364 64.4 28.364 Q 65.6 28.364 67.075 27.414 Q 68.55 26.464 70.125 24.939 Q 71.7 23.414 73.2 21.664 Q 74.7 19.914 75.975 18.339 Q 77.25 16.764 78.15 15.714 Q 78.65 15.864 79.55 15.864 Q 80.45 15.864 81.1 15.764 Q 79.8 17.414 78.2 19.239 Q 76.6 21.064 75.125 22.739 Q 73.65 24.414 72.7 25.689 Q 71.75 26.964 71.75 27.614 A 0.538 0.538 0 0 0 72.025 28.089 Q 72.3 28.264 72.8 28.264 Q 73.9 28.264 75.175 27.489 A 16.233 16.233 0 0 0 77.428 25.81 A 2.154 2.154 0 0 1 77.525 25.689 A 4.146 4.146 0 0 1 78.425 24.883 A 55.655 55.655 0 0 0 80.175 23.139 Q 81.35 21.914 82.2 20.964 L 82.231 20.991 A 61.193 61.193 0 0 1 83.025 20.039 Q 83.85 19.064 84.7 18.114 Q 85.55 17.164 86.175 16.489 Q 86.8 15.814 86.85 15.714 Q 87 15.514 87.125 15.014 Q 87.25 14.514 87.475 14.064 Q 87.7 13.614 88.05 13.614 Q 88.9 13.614 88.9 14.214 Q 88.9 14.664 88.225 15.314 Q 87.55 15.964 87.45 16.364 A 2.726 2.726 0 0 0 87.381 17.019 A 6.441 6.441 0 0 0 87.475 18.039 Q 87.65 19.114 87.875 20.464 Q 88.1 21.814 88.1 23.314 Q 88.1 25.314 87.3 26.539 Q 86.5 27.764 85.3 28.414 Q 84.1 29.064 82.825 29.289 Q 81.55 29.514 80.55 29.514 Q 78.8 29.514 77.9 28.864 Q 77 28.214 77 27.114 A 2.154 2.154 0 0 1 77.018 26.82 A 17.707 17.707 0 0 1 75.3 27.989 Q 73.9 28.814 72.65 28.814 Q 71.95 28.814 71.35 28.414 Q 70.75 28.014 70.75 26.964 Q 70.75 26.014 71.2 24.989 Q 71.65 23.964 72.15 23.189 Q 72.65 22.414 72.75 22.264 L 73.1 22.414 Q 72.65 23.064 71.675 24.139 Q 70.7 25.214 69.425 26.289 Q 68.15 27.364 66.75 28.089 Q 65.35 28.814 64 28.814 Q 61.85 28.814 61.85 26.564 A 4.619 4.619 0 0 1 62.444 24.618 A 30.75 30.75 0 0 1 60.7 26.164 Q 59.3 27.314 57.9 28.064 Q 56.5 28.814 55.3 28.814 Q 53.75 28.814 53.125 27.864 Q 52.5 26.914 52.5 26.014 Q 52.5 24.814 52.975 23.564 Q 53.45 22.314 54.05 21.139 Q 54.65 19.964 55.125 19.014 Q 55.6 18.064 55.6 17.414 Q 55.6 16.714 55.35 16.464 Q 55.1 16.214 54.6 16.214 Q 53.45 16.214 52 17.339 A 25.625 25.625 0 0 0 48.951 20.338 A 69.148 69.148 0 0 0 48.05 21.364 A 0.757 0.757 0 0 1 47.993 21.339 A 107.736 107.736 0 0 0 46.75 22.814 Q 45.75 24.014 44.25 25.414 Q 42.75 26.814 40.85 27.814 Q 38.95 28.814 36.75 28.814 Z M 18.323 29.13 A 0.606 0.606 0 0 0 18.7 28.964 Q 20.65 27.014 23.025 24.214 Q 25.4 21.414 28.075 18.189 Q 30.75 14.964 33.6 11.839 Q 36.45 8.714 39.35 6.164 Q 42.25 3.614 45.075 2.064 Q 47.9 0.514 50.5 0.514 Q 51.65 0.514 52.25 1.039 Q 52.85 1.564 53.075 2.289 Q 53.3 3.014 53.3 3.614 Q 53.3 5.514 52.3 6.939 Q 51.3 8.364 50 9.289 Q 48.7 10.214 47.725 10.689 L 46.75 11.164 A 0.853 0.853 0 0 0 46.38 11.457 A 0.041 0.041 0 0 0 46.425 11.489 Q 46.6 11.514 47.05 11.464 Q 47.75 11.364 48.975 10.639 Q 50.2 9.914 51.5 8.814 Q 52.8 7.714 53.675 6.389 Q 54.55 5.064 54.55 3.714 Q 54.55 2.264 53.625 1.139 Q 52.7 0.014 50.7 0.014 Q 47.9 0.014 44.975 1.539 Q 42.05 3.064 39.125 5.564 Q 36.2 8.064 33.425 11.064 Q 30.65 14.064 28.15 17.039 Q 25.65 20.014 23.55 22.514 Q 21.45 25.014 19.9 26.464 Q 19.75 26.614 19.5 26.964 Q 19.25 27.314 19.175 27.489 Q 19.148 27.553 19.171 27.553 A 0.743 0.743 0 0 0 19.4 27.364 Q 21.35 25.164 22.925 22.314 Q 24.5 19.464 25.75 16.414 Q 27 13.364 27.95 10.564 Q 28.9 7.764 29.6 5.689 Q 30.3 3.614 30.75 2.764 A 2.191 2.191 0 0 0 31.023 2.038 A 0.102 0.102 0 0 0 31 1.964 A 0.097 0.097 0 0 0 30.929 1.935 A 0.554 0.554 0 0 0 30.625 2.114 Q 30.35 2.364 30.05 2.764 A 2.009 2.009 0 0 1 30.02 2.815 A 35.553 35.553 0 0 1 28.7 4.664 Q 27.55 6.214 25.775 8.539 Q 24 10.864 21.775 13.539 Q 19.55 16.214 17.1 18.814 Q 14.65 21.414 12.225 23.589 Q 9.8 25.764 7.6 27.064 Q 5.4 28.364 3.7 28.364 Q 2 28.364 1.375 27.614 Q 0.75 26.864 0.75 26.214 L 1 26.339 Q 1.25 26.464 1.6 26.464 Q 2.1 26.464 2.425 26.189 Q 2.75 25.914 2.75 25.464 Q 2.75 24.614 1.65 24.614 Q 1.15 24.614 0.575 25.039 Q 0 25.464 0 26.164 Q 0 27.064 0.85 27.939 Q 1.7 28.814 4 28.814 Q 5.75 28.814 8 27.514 Q 10.25 26.214 12.7 24.039 Q 15.15 21.864 17.575 19.264 Q 20 16.664 22.175 14.064 Q 24.35 11.464 26.05 9.289 Q 27.75 7.114 28.725 5.764 A 156.679 156.679 0 0 0 28.954 5.446 A 13.534 13.534 0 0 0 29.7 4.364 Q 29.731 4.24 29.667 4.24 A 0.256 0.256 0 0 0 29.55 4.289 Q 29.35 4.414 29.2 4.614 Q 27.05 7.664 25.525 10.764 Q 24 13.864 22.95 16.739 Q 21.9 19.614 21.15 22.014 Q 20.4 24.414 19.75 26.089 Q 19.1 27.764 18.35 28.514 A 0.801 0.801 0 0 0 18.061 28.958 A 0.141 0.141 0 0 0 18.15 29.089 A 0.381 0.381 0 0 0 18.323 29.13 Z M 9.9 13.114 Q 6.85 13.114 5.475 11.514 Q 4.1 9.914 4.1 7.764 Q 4.1 6.264 5.025 4.789 Q 5.95 3.314 7.95 2.339 Q 9.95 1.364 13.15 1.364 Q 15.15 1.364 16.75 1.889 Q 18.35 2.414 19.625 3.064 Q 20.9 3.714 22.05 4.239 Q 23.2 4.764 24.3 4.764 Q 25.4 4.764 26.4 4.239 Q 27.4 3.714 27.6 3.514 A 0.497 0.497 0 0 1 27.845 3.38 A 0.057 0.057 0 0 1 27.9 3.414 A 0.186 0.186 0 0 1 27.917 3.497 A 0.768 0.768 0 0 1 27.85 3.764 Q 27.8 3.914 27.3 4.414 Q 26.8 4.914 25.75 5.339 Q 24.7 5.764 22.95 5.764 Q 21.4 5.764 20.025 5.214 Q 18.65 4.664 17.325 3.964 Q 16 3.264 14.575 2.714 Q 13.15 2.164 11.5 2.164 Q 9.35 2.164 7.825 3.064 Q 6.3 3.964 5.5 5.264 Q 4.7 6.564 4.7 7.764 Q 4.7 9.614 5.925 11.139 Q 7.15 12.664 9.9 12.664 Q 11.35 12.664 12.575 11.989 Q 13.8 11.314 14.525 10.214 Q 15.25 9.114 15.25 7.914 Q 15.25 7.614 15.025 7.164 Q 14.8 6.714 14.7 6.714 L 14.5 6.889 Q 14.3 7.064 13.95 7.064 Q 13.65 7.064 13.325 6.864 Q 13 6.664 13 6.214 Q 13 5.814 13.275 5.589 Q 13.55 5.364 13.9 5.364 Q 14.6 5.364 15.2 5.964 Q 15.8 6.564 15.8 7.814 Q 15.8 10.114 14.05 11.614 Q 12.3 13.114 9.9 13.114 Z M 45.05 26.914 Q 45.65 26.914 45.875 27.189 Q 46.1 27.464 47.05 27.464 Q 47.95 27.464 49.025 26.764 Q 50.1 26.064 51.175 24.889 Q 52.25 23.714 53.225 22.314 Q 54.2 20.914 54.9 19.514 L 55.075 20.139 Q 55.25 20.764 55.4 21.389 L 55.55 22.014 Q 56.1 21.014 56.975 19.914 Q 57.85 18.814 58.9 17.839 Q 59.95 16.864 61.1 16.239 Q 62.25 15.614 63.35 15.614 Q 64.5 15.614 64.9 16.039 Q 65.3 16.464 65.3 16.964 Q 65.3 17.364 65 17.764 Q 64.7 18.164 64.1 18.164 Q 63.5 18.164 63.225 17.814 Q 62.95 17.464 62.85 17.064 Q 62.75 16.664 62.75 16.564 Q 61.8 16.564 60.775 17.164 Q 59.75 17.764 58.75 18.764 Q 57.75 19.764 56.875 21.039 Q 56 22.314 55.35 23.614 L 55 23.214 L 54.3 22.414 L 53.95 22.014 Q 52.65 24.314 51.125 25.839 Q 49.6 27.364 48.125 28.089 Q 46.65 28.814 45.4 28.814 Q 44.4 28.814 44.125 28.464 Q 43.85 28.114 43.85 27.814 Q 43.85 27.564 44.175 27.239 Q 44.5 26.914 45.05 26.914 Z M 81.692 22.286 A 284.512 284.512 0 0 0 80.625 23.439 A 36.301 36.301 0 0 1 79.781 24.321 A 2.571 2.571 0 0 1 79.85 24.314 Q 80.4 24.314 80.575 24.539 Q 80.75 24.764 80.75 25.014 Q 80.75 25.414 80.275 25.664 Q 79.8 25.914 79.5 25.914 Q 79.15 25.914 78.875 25.689 L 78.6 25.464 A 1.65 1.65 0 0 0 78.599 25.464 A 36.301 36.301 0 0 1 78.075 25.939 A 17.707 17.707 0 0 1 77.702 26.266 A 1.61 1.61 0 0 0 77.45 27.114 Q 77.45 27.714 78.1 28.264 Q 78.75 28.814 80.2 28.814 Q 81.7 28.814 83.075 27.814 Q 84.45 26.814 85.35 25.264 Q 86.25 23.714 86.25 22.114 L 86.25 20.639 L 86.25 19.114 Q 86.25 18.364 86.5 17.389 Q 86.75 16.414 87.075 15.564 Q 87.4 14.714 87.6 14.514 Q 88 14.164 88.2 14.314 A 0.269 0.269 0 0 1 88.334 14.514 A 0.179 0.179 0 0 1 88.3 14.614 Q 88.25 14.664 87.65 15.389 Q 87.05 16.114 86.15 17.164 L 84.35 19.264 Q 83.45 20.314 82.775 21.114 Q 82.1 21.914 82 22.064 A 0.422 0.422 0 0 1 81.702 22.286 A 0.215 0.215 0 0 1 81.692 22.286 Z M 86.65 23.164 L 87.15 23.214 Q 87 23.714 86.875 24.264 A 1.58 1.58 0 0 0 86.834 24.614 A 1.109 1.109 0 0 0 87 25.214 Q 87.25 25.614 88.3 25.614 Q 89.05 25.614 90 24.914 Q 90.95 24.214 91.875 23.214 Q 92.8 22.214 93.45 21.264 L 93.9 21.614 Q 93.25 22.414 92.325 23.464 Q 91.4 24.514 90.35 25.289 Q 89.3 26.064 88.25 26.064 Q 86.95 26.064 86.575 25.564 Q 86.2 25.064 86.325 24.389 Q 86.45 23.714 86.65 23.164 Z"/></g></svg>